<svg enable-background="new 0 0 36 36" height="512" viewBox="0 0 36 36" width="512" xmlns="http://www.w3.org/2000/svg"><g id="BG"><g><path d="m27.417 3.914c-6.915.129-11.732-3.365-15.064-3.302s-10.296 2.109-10.009 17.44 9.744 17.404 13.41 17.336c17.163-.321 23.911-31.703 11.663-31.474z" fill="#efefef"/></g></g><g id="Effect"><g><g><path d="m5.606 3.955h1.999v.999h-1.999z" fill="#a4afc1" transform="matrix(.602 -.799 .799 .602 -.929 7.047)"/></g><g><path d="m2.142 8.545h1.999v.999h-1.999z" fill="#a4afc1" transform="matrix(.602 -.799 .799 .602 -5.972 6.108)"/></g><g><path d="m2.054 3.843h1.001v2h-1.001z" fill="#a4afc1" transform="matrix(.603 -.798 .798 .603 -2.85 3.963)"/></g></g><g><path d="m6 27.335c-.827 0-1.5-.673-1.5-1.5s.673-1.5 1.5-1.5 1.5.673 1.5 1.5-.673 1.5-1.5 1.5zm0-2c-.276 0-.5.225-.5.5s.224.5.5.5.5-.225.5-.5-.224-.5-.5-.5z" fill="#a4afc1"/></g></g><g id="color_1_"><g><path d="m26 10.2v10.6c0 1.21-.99 2.2-2.2 2.2h-15.6c-.08 0-.16 0-.25-.01-1.05-.12-1.88-.99-1.94-2.06-.01-.04-.01-.09-.01-.13v-10.6c0-1.21.99-2.2 2.2-2.2h15.6c1.21 0 2.2.99 2.2 2.2z" fill="#f3f3f1"/></g><g><path d="m20.74 12.935c-.68-.663-1.8-.663-2.48 0l-3.811 4.593-1.209-1.179c-.68-.663-1.8-.663-2.48 0l-4.75 4.633c.06 1.044.89 1.892 1.94 2.009.09.009.17.009.25.009h1.708 10.152 3.74c1.21 0 2.2-.966 2.2-2.146v-1.72z" fill="#2fdf84"/></g><g><path d="m8.76 20.93c-.01-.04-.01-.09-.01-.13v-10.6c0-1.21.99-2.2 2.2-2.2h-2.75c-1.21 0-2.2.99-2.2 2.2v10.6c0 .04 0 .09.01.13.06 1.07.89 1.94 1.94 2.06.09.01.17.01.25.01h2.75c-.08 0-.16 0-.25-.01-1.05-.12-1.88-.99-1.94-2.06z" fill="#d5dbe1"/></g><g><g><path d="m15.066 18.91 1.209 1.209 4.485-5.564c.238-.238.532-.388.841-.46l-.861-1.04c-.68-.68-1.8-.68-2.48 0l-4.317 5.356c.41.027.813.188 1.123.499z" fill="#00b871"/></g><g><path d="m8.51 22.43 4.75-4.75c.278-.278.629-.436.993-.487l-1.013-1.013c-.68-.68-1.8-.68-2.48 0l-4.75 4.75c.06 1.07.89 1.94 1.94 2.06.09.01.17.01.25.01h.428c-.061-.182-.107-.371-.118-.57z" fill="#00b871"/></g></g><g><circle cx="11" cy="12" fill="#2fdf84" r="2"/></g></g><g id="regular_1.5"><g><path d="m27.75 28h-11.5c-1.241 0-2.25-1.01-2.25-2.25v-.25h1.5v.25c0 .413.336.75.75.75h11.5c.414 0 .75-.337.75-.75v-8.5c0-.413-.336-.75-.75-.75h-.25v-1.5h.25c1.241 0 2.25 1.01 2.25 2.25v8.5c0 1.24-1.009 2.25-2.25 2.25z"/></g><g><path d="m23.803 23h-15.606c-1.211 0-2.197-.985-2.197-2.197v-10.606c0-1.212.986-2.197 2.197-2.197h15.605c1.212 0 2.198.985 2.198 2.197v10.605c0 1.213-.986 2.198-2.197 2.198zm-15.606-13.5c-.384 0-.697.312-.697.697v10.605c0 .385.313.697.697.697h15.605c.384 0 .697-.312.697-.697v-10.605c0-.385-.313-.697-.697-.697z"/></g><g><path d="m11 14c-1.103 0-2-.897-2-2s.897-2 2-2 2 .897 2 2-.897 2-2 2zm0-2.5c-.276 0-.5.225-.5.5s.224.5.5.5.5-.225.5-.5-.224-.5-.5-.5z"/></g><g><path d="m7.3 21.761-1.06-1.061 4.52-4.521c.684-.684 1.796-.684 2.48 0l1.21 1.209 3.714-4.459c.332-.398.819-.629 1.336-.631h.009c.514 0 .999.224 1.332.616l4.978 5.807-1.139.977-4.98-5.81c-.067-.079-.152-.095-.192-.09-.043 0-.126.012-.191.091l-4.241 5.091c-.135.161-.332.259-.542.269-.214.021-.416-.07-.564-.219l-1.79-1.79c-.098-.098-.262-.098-.36 0z"/></g></g></svg>